<svg version="1.0" xmlns="http://www.w3.org/2000/svg" height="300pt" width="600pt" viewBox="0 0 742.000000 308.000000" preserveAspectRatio="xMidYMid meet">
    <g transform="translate(0.000000,308.000000) scale(0.100000,-0.100000)" fill="#000000" stroke="none">
        <path fill="#2196f3" d="M3290 1890 c-59 -9 -62 -29 -58 -470 3 -341 5 -389 20 -416 10 -17
                25 -35 35 -40 10 -5 186 -10 391 -11 422 -4 417 -4 420 67 3 69 2 69 -357 70
                -251 0 -318 3 -329 14 -11 11 -14 88 -15 381 -2 285 -5 369 -14 372 -7 3 -13
                11 -13 18 0 16 -34 22 -80 15z" />
        <path fill="#2196f3" d="M4400 1892 c-40 -14 -40 -16 -40 -446 0 -238 4 -425 10 -440 18 -49
                29 -51 415 -54 198 -2 370 0 382 3 53 13 71 77 33 115 -19 19 -33 20 -344 20
                -299 0 -324 1 -331 18 -4 9 -6 166 -5 349 1 310 -4 384 -27 419 -9 13 -71 24
                -93 16z" />
        <path fill="#2196f3" d="M5877 1866 c-39 -30 -59 -61 -171 -271 -24 -44 -60 -111 -81 -150
                -82 -151 -95 -178 -95 -191 0 -8 -4 -14 -9 -14 -5 0 -14 -15 -22 -32 -7 -18
                -15 -35 -19 -38 -14 -12 -40 -61 -40 -75 0 -8 -4 -15 -8 -15 -5 0 -14 -19 -21
                -41 -11 -38 -11 -45 7 -68 13 -18 30 -27 56 -29 43 -4 76 25 116 104 13 27 35
                66 47 87 l23 37 308 0 307 0 45 -86 c60 -116 87 -144 137 -144 47 0 73 23 73
                64 0 23 -110 250 -129 266 -3 3 -16 25 -29 50 -12 25 -38 72 -57 105 -19 33
                -42 77 -51 98 -9 20 -20 37 -25 37 -5 0 -9 7 -9 15 0 9 -20 50 -43 93 -24 42
                -46 84 -49 92 -11 28 -68 99 -92 116 -14 8 -48 17 -77 18 -44 3 -57 -1 -92
                -28z m111 -166 c7 -12 25 -44 41 -73 16 -29 40 -72 53 -97 103 -185 110 -203
                82 -214 -9 -3 -103 -6 -209 -6 -181 0 -194 1 -200 19 -4 13 24 74 86 187 86
                160 114 204 128 204 3 0 12 -9 19 -20z" />
        <path fill="#2196f3" d="M1214 1873 c-35 -7 -60 -44 -73 -107 -15 -79 -15 -623 0 -702 12 -61
                42 -106 64 -98 7 3 16 1 19 -5 4 -6 138 -10 384 -11 427 0 422 -1 422 70 0 71
                0 71 -375 70 -392 -2 -359 -15 -357 142 1 56 5 105 9 109 5 5 133 9 285 11
                301 3 299 3 313 60 5 21 1 33 -19 52 l-25 26 -269 0 c-195 0 -271 3 -280 12
                -18 18 -16 212 1 227 9 7 119 11 345 12 294 1 334 3 352 17 30 26 34 64 11 94
                l-21 26 -382 0 c-211 -1 -393 -3 -404 -5z" />
        <path fill="#2196f3" d="M2327 1866 c-10 -8 -20 -30 -24 -49 -9 -56 17 -71 135 -77 l97 -5 3
                -325 2 -325 -99 3 c-90 3 -101 2 -120 -17 -27 -27 -27 -61 -1 -94 l21 -26 283
                -1 c264 0 284 1 300 19 21 23 18 75 -7 102 -15 17 -30 20 -80 19 -132 -3 -124
                -6 -136 50 -12 57 -15 490 -3 490 4 0 7 24 7 53 l0 52 100 3 c119 3 138 14
                133 76 -5 64 -13 66 -323 66 -212 -1 -274 -4 -288 -14z" />
    </g>
</svg>