<svg xmlns="http://www.w3.org/2000/svg" xmlns:xlink="http://www.w3.org/1999/xlink" width="1119" height="172" viewBox="0 0 1119 172"><title>Group 2</title><g id="Popup" stroke="none" stroke-width="1" fill="none" fill-rule="evenodd"><g id="easy-readlogo-outlines" transform="translate(-175.000000, -221.000000)"><g id="Group-2" transform="translate(175.000000, 221.000000)"><g id="Group"><g id="Read-Easy" transform="translate(228.430000, 10.600000)" fill="#000" fill-rule="nonzero"><path d="M71.485 105.85C67.0383333 105.85 63.3166667 105.245833 60.32 104.0375 57.3233333 102.829167 55.0275 100.871667 53.4325 98.165 51.8375 95.4583333 51.04 91.785 51.04 87.145 51.04 85.695 50.9433333 83.955 50.75 81.925S50.0491667 77.9375 49.2275 76.0525C48.4058333 74.1675 47.125 72.5725 45.385 71.2675 43.645 69.9625 41.2283333 69.31 38.135 69.31h-8.41V104.4H0V4.93H55.68c4.7366667.0 9.2075.9425 13.4125 2.8275 4.205 1.885 7.63666669999999 4.64 10.295 8.265 2.6583333 3.625 3.9875 8.1441667 3.9875 13.5575C83.375 34.1233333 82.5533333 38.2075 80.91 41.8325 79.2666667 45.4575 77.0916667 48.5025 74.385 50.9675c-2.7066667 2.465-5.655 4.3258333-8.845 5.5825V57.275C68.3433333 58.145 70.76 59.3533333 72.79 60.9 74.82 62.4466667 76.4633333 64.2591667 77.72 66.3375 78.9766667 68.4158333 79.9191667 70.5666667 80.5475 72.79 81.1758333 75.0133333 81.49 77.1883333 81.49 79.315 81.49 80.765 81.5383333 82.4325 81.635 84.3175 81.7316667 86.2025 81.9975 88.015 82.4325 89.755 82.8675 91.495 83.5925 93.0416667 84.6075 94.395S87.0483333 96.6666667 88.885 97.15V103.095C86.275 104.158333 83.4233333 104.883333 80.33 105.27S74.2883333 105.85 71.485 105.85zM29.725 47.125h14.79c1.45.0 2.7791667-.459166699999997 3.9875-1.3775S50.6533333 43.5966667 51.33 42.05C52.0066667 40.5033333 52.345 38.715 52.345 36.685 52.345 33.5916667 51.62 31.32 50.17 29.87 48.72 28.42 46.98 27.695 44.95 27.695H29.725v19.43z" id="Shape"/><path d="M134.27 105.85C126.633333 105.85 119.818333 104.448333 113.825 101.645 107.831667 98.8416667 103.119167 94.7333333 99.6875 89.32 96.2558333 83.9066667 94.54 77.3333333 94.54 69.6V65.105C94.54 57.3716667 96.2316667 50.7983333 99.615 45.385 102.998333 39.9716667 107.686667 35.8633333 113.68 33.06 119.673333 30.2566667 126.488333 28.855 134.125 28.855h3.625c7.63666699999999.0 14.113333 1.45 19.43 4.35s9.376667 6.8391667 12.18 11.8175C172.163333 50.0008333 173.565 55.7283333 173.565 62.205v8.99H125.28C125.28 74.2883333 125.545833 77.14 126.0775 79.75S127.6 84.4383333 129.05 85.985C130.5 87.5316667 132.675 88.305 135.575 88.305 138.185 88.305 140.311667 87.8216667 141.955 86.855 143.598333 85.8883333 144.830833 84.5108333 145.6525 82.7225 146.474167 80.9341667 146.885 78.88 146.885 76.56H173.42C173.42 81.9733333 171.921667 86.9033333 168.925 91.35 165.928333 95.7966667 161.675 99.325 156.165 101.935 150.655 104.545 144.081667 105.85 136.445 105.85H134.27zM125.28 58.58h20.01C145.29 54.3266667 144.3475 51.2333333 142.4625 49.3 140.5775 47.3666667 138.185 46.4 135.285 46.4c-2.996667.0-5.41333299999999 1.0391667-7.25 3.1175C126.198333 51.5958333 125.28 54.6166667 125.28 58.58z" id="Shape"/><path d="M204.595 105.85C200.631667 105.85 196.861667 105.149167 193.285 103.7475 189.708333 102.345833 186.808333 100.098333 184.585 97.005 182.361667 93.9116667 181.25 89.755 181.25 84.535 181.25 79.4116667 182.361667 75.1583333 184.585 71.775 186.808333 68.3916667 190.0225 65.7333333 194.2275 63.8 198.4325 61.8666667 203.531667 60.5133333 209.525 59.74 215.518333 58.9666667 222.285 58.58 229.825 58.58V53.505C229.825 50.7016667 228.906667 48.6958333 227.07 47.4875S223.01 45.675 220.4 45.675C217.596667 45.675 215.349167 46.3033333 213.6575 47.56 211.965833 48.8166667 211.12 50.46 211.12 52.49V53.07H183.57C183.473333 52.8766667 183.425 52.5866667 183.425 52.2c0-.386666700000006.0-.773333300000004.0-1.16C183.425 46.8833333 184.826667 43.1375 187.63 39.8025s6.815-5.9933333 12.035-7.975c5.22-1.9816667 11.406667-2.9725 18.56-2.9725h4.785c11.696667.0 20.396667 2.2475 26.1 6.7425C254.813333 40.0925 257.665 45.675 257.665 52.345V82.94C257.665 84.8733333 258.148333 86.2508333 259.115 87.0725 260.081667 87.8941667 261.096667 88.305 262.16 88.305 263.03 88.305 263.9 88.1841667 264.77 87.9425 265.64 87.7008333 266.461667 87.3866667 267.235 87v15.515C265.978333 103.481667 264.165833 104.279167 261.7975 104.9075S256.36 105.85 252.59 105.85C248.336667 105.85 244.711667 105.3425 241.715 104.3275S236.374167 101.935 234.6825 100.195C232.990833 98.455 231.855 96.425 231.275 94.105 228.761667 97.005 225.354167 99.6875 221.0525 102.1525 216.750833 104.6175 211.265 105.85 204.595 105.85zm15.37-17.545C221.705 88.305 223.324167 87.8941667 224.8225 87.0725 226.320833 86.2508333 227.529167 85.0666667 228.4475 83.52 229.365833 81.9733333 229.825 80.185 229.825 78.155v-6.38C225.378333 71.775 221.801667 72.1858333 219.095 73.0075 216.388333 73.8291667 214.406667 74.9408333 213.15 76.3425 211.893333 77.7441667 211.265 79.4116667 211.265 81.345 211.265 84.1483333 212.159167 86.0091667 213.9475 86.9275 215.735833 87.8458333 217.741667 88.305 219.965 88.305z" id="Shape"/><path d="M301.31 105.85c-6.38.0-11.745-1.3775-16.095-4.13249999999999C280.865 98.9625 277.578333 94.7816667 275.355 89.175 273.131667 83.5683333 272.02 76.56 272.02 68.15V66.555C272.02 58.0483333 273.3975 51.0158333 276.1525 45.4575 278.9075 39.8991667 282.556667 35.7425 287.1 32.9875 291.643333 30.2325 296.476667 28.855 301.6 28.855S310.8075 29.7491667 313.8525 31.5375C316.8975 33.3258333 319.193333 35.4766667 320.74 37.99V0h28.71V104.4H326.54L323.93 95.265C321.9 97.7783333 319.048333 100.170833 315.375 102.4425 311.701667 104.714167 307.013333 105.85 301.31 105.85zm10.44-17.545C313.49 88.305 315.036667 87.8458333 316.39 86.9275 317.743333 86.0091667 318.806667 84.7766667 319.58 83.23 320.353333 81.6833333 320.74 79.9916667 320.74 78.155V57.13C320.74 55.1966667 320.353333 53.4808333 319.58 51.9825 318.806667 50.4841667 317.743333 49.2758333 316.39 48.3575 315.036667 47.4391667 313.49 46.98 311.75 46.98 309.236667 46.98 307.11 47.9708333 305.37 49.9525S302.76 54.3266667 302.76 57.13V78.155C302.76 79.9916667 303.146667 81.6833333 303.92 83.23 304.693333 84.7766667 305.780833 86.0091667 307.1825 86.9275 308.584167 87.8458333 310.106667 88.305 311.75 88.305z" id="Shape"/><polygon id="Path" points="392.95 104.4 392.95 4.93 467.625 4.93 464.725 28.13 422.82 28.13 422.82 42.63 463.13 42.63 463.13 64.815 422.82 64.815 422.82 81.2 464.725 81.2 467.625 104.4"/><path d="M498.51 105.85C494.546667 105.85 490.776667 105.149167 487.2 103.7475S480.723333 100.098333 478.5 97.005C476.276667 93.9116667 475.165 89.755 475.165 84.535 475.165 79.4116667 476.276667 75.1583333 478.5 71.775 480.723333 68.3916667 483.9375 65.7333333 488.1425 63.8 492.3475 61.8666667 497.446667 60.5133333 503.44 59.74 509.433333 58.9666667 516.2 58.58 523.74 58.58V53.505C523.74 50.7016667 522.821667 48.6958333 520.985 47.4875S516.925 45.675 514.315 45.675C511.511667 45.675 509.264167 46.3033333 507.5725 47.56 505.880833 48.8166667 505.035 50.46 505.035 52.49V53.07h-27.55C477.388333 52.8766667 477.34 52.5866667 477.34 52.2c0-.386666700000006.0-.773333300000004.0-1.16C477.34 46.8833333 478.741667 43.1375 481.545 39.8025s6.815-5.9933333 12.035-7.975C498.8 29.8458333 504.986667 28.855 512.14 28.855H516.925c11.696667.0 20.3966670000001 2.2475 26.1 6.7425C548.728333 40.0925 551.58 45.675 551.58 52.345V82.94C551.58 84.8733333 552.063333 86.2508333 553.03 87.0725 553.996667 87.8941667 555.011667 88.305 556.075 88.305 556.945 88.305 557.815 88.1841667 558.685 87.9425 559.555 87.7008333 560.376667 87.3866667 561.15 87v15.515C559.893333 103.481667 558.080833 104.279167 555.7125 104.9075S550.275 105.85 546.505 105.85C542.251667 105.85 538.626667 105.3425 535.63 104.3275S530.289167 101.935 528.5975 100.195C526.905833 98.455 525.77 96.425 525.19 94.105 522.676667 97.005 519.269167 99.6875 514.9675 102.1525 510.665833 104.6175 505.18 105.85 498.51 105.85zm15.37-17.545C515.62 88.305 517.239167 87.8941667 518.7375 87.0725 520.235833 86.2508333 521.444167 85.0666667 522.3625 83.52 523.280833 81.9733333 523.74 80.185 523.74 78.155v-6.38C519.293333 71.775 515.716667 72.1858333 513.01 73.0075 510.303333 73.8291667 508.321667 74.9408333 507.065 76.3425 505.808333 77.7441667 505.18 79.4116667 505.18 81.345 505.18 84.1483333 506.074167 86.0091667 507.8625 86.9275 509.650833 87.8458333 511.656667 88.305 513.88 88.305z" id="Shape"/><path d="M597.4 105.85C593.533333 105.85 589.690833 105.390833 585.8725 104.4725 582.054167 103.554167 578.598333 102.1525 575.505 100.2675S569.946667 95.99 568.11 93.09C566.273333 90.19 565.355 86.7583333 565.355 82.795 565.355 82.3116667 565.355 81.8766667 565.355 81.49 565.355 81.1033333 565.403333 80.6683333 565.5 80.185h23.635C589.038333 80.3783333 588.99 80.5475 588.99 80.6925 588.99 80.8375 588.99 81.0066667 588.99 81.2 588.99 83.0366667 589.666667 84.4866667 591.02 85.55S594.016667 87.3383333 595.95 87.725C597.883333 88.1116667 599.72 88.305 601.46 88.305 602.426667 88.305 603.876667 88.2325 605.81 88.0875 607.743333 87.9425 609.555833 87.5558333 611.2475 86.9275 612.939167 86.2991667 613.785 85.26 613.785 83.81 613.785 82.2633333 612.963333 81.1033333 611.32 80.33 609.676667 79.5566667 607.4775 78.9525 604.7225 78.5175S598.946667 77.6475 595.66 77.2125C592.373333 76.7775 589.086667 76.125 585.8 75.255 582.513333 74.385 579.4925 73.1283333 576.7375 71.485S571.783333 67.5941667 570.14 64.7425C568.496667 61.8908333 567.675 58.2416667 567.675 53.795S568.714167 45.53 570.7925 42.34C572.870833 39.15 575.625833 36.5641667 579.0575 34.5825 582.489167 32.6008333 586.186667 31.1508333 590.15 30.2325 594.113333 29.3141667 597.98 28.855 601.75 28.855h4.495C609.435 28.855 612.8425 29.2416667 616.4675 30.015S623.524167 31.9966667 626.7625 33.64C630.000833 35.2833333 632.635 37.3616667 634.665 39.875 636.695 42.3883333 637.71 45.3366667 637.71 48.72 637.71 49.3966667 637.685833 50.0733333 637.6375 50.75 637.589167 51.4266667 637.516667 52.0066667 637.42 52.49H613.64V51.765C613.64 50.7016667 613.301667 49.7833333 612.625 49.01 611.948333 48.2366667 611.078333 47.6325 610.015 47.1975 608.951667 46.7625 607.84 46.4483333 606.68 46.255 605.52 46.0616667 604.456667 45.965 603.49 45.965 602.813333 45.965 601.870833 45.9891667 600.6625 46.0375 599.454167 46.0858333 598.245833 46.2308333 597.0375 46.4725 595.829167 46.7141667 594.814167 47.125 593.9925 47.705 593.170833 48.285 592.76 49.1066667 592.76 50.17 592.76 51.7166667 593.605833 52.8283333 595.2975 53.505 596.989167 54.1816667 599.2125 54.6891667 601.9675 55.0275 604.7225 55.3658333 607.7675 55.7283333 611.1025 56.115 614.4375 56.5016667 617.748333 57.0816667 621.035 57.855 624.321667 58.6283333 627.3425 59.8608333 630.0975 61.5525S635.075833 65.54 636.7675 68.44C638.459167 71.34 639.305 75.11 639.305 79.75 639.305 84.68 638.314167 88.8125 636.3325 92.1475 634.350833 95.4825 631.716667 98.165 628.43 100.195 625.143333 102.225 621.47 103.675 617.41 104.545 613.35 105.415 609.193333 105.85 604.94 105.85H597.4z" id="Path"/><path d="M662.07 131.515C658.976667 131.515 656.221667 131.345833 653.805 131.0075 651.388333 130.669167 649.358333 130.113333 647.715 129.34V110.635C648.778333 111.118333 650.349167 111.5775 652.4275 112.0125S656.56 112.665 658.59 112.665C661.586667 112.665 663.834167 112.036667 665.3325 110.78 666.830833 109.523333 667.894167 108.073333 668.5225 106.43 669.150833 104.786667 669.61 103.385 669.9 102.225l-27.26-71.92h30.595L684.69 68.73H685.85L695.565 30.305H723.84L698.9 99.18C696.676667 105.27 693.849167 110.755833 690.4175 115.6375 686.985833 120.519167 682.925833 124.385833 678.2375 127.2375 673.549167 130.089167 668.16 131.515 662.07 131.515z" id="Path"/></g><g id="part-of-Accessibilit" transform="translate(229.437500, 126.520000)" fill="#000" fill-rule="nonzero"><path d="M0 31.815V7.595H3.115L3.64 10.01c.56-.84 1.295-1.51083333 2.205-2.0125S7.81666667 7.245 9.03 7.245C10.3833333 7.245 11.6083333 7.5425 12.705 8.1375 13.8016667 8.7325 14.6766667 9.68916667 15.33 11.0075 15.9833333 12.3258333 16.31 14.0583333 16.31 16.205V16.94C16.31 18.8766667 15.995 20.51 15.365 21.84 14.735 23.17 13.8891667 24.1675 12.8275 24.8325S10.5933333 25.83 9.31 25.83C8.05 25.83 6.9825 25.5908333 6.1075 25.1125S4.56166667 24.0216667 4.095 23.275v8.54H0zm8.12-8.82C8.86666667 22.995 9.5375 22.8025 10.1325 22.4175 10.7275 22.0325 11.1941667 21.4608333 11.5325 20.7025 11.8708333 19.9441667 12.04 19.005 12.04 17.885v-2.45C12.04 14.1516667 11.8708333 13.1133333 11.5325 12.32 11.1941667 11.5266667 10.7275 10.9433333 10.1325 10.57 9.5375 10.1966667 8.86666667 10.01 8.12 10.01c-.723333329999999.0-1.39416667.1808333-2.0125.5425C5.48916667 10.9141667 4.99333333 11.4858333 4.62 12.2675 4.24666667 13.0491667 4.06 14.0933333 4.06 15.4v2.485c0 1.1433333.18083333 2.0941667.5425 2.8525s.85166667 1.3241667 1.47 1.6975C6.69083333 22.8083333 7.37333333 22.995 8.12 22.995z" id="Shape"/><path d="M25.375 25.83C24.4183333 25.83 23.5025 25.6783333 22.6275 25.375S21.035 24.5525 20.475 23.8175C19.915 23.0825 19.635 22.085 19.635 20.825c0-1.2833333.2858333-2.3216667.857499999999998-3.115C21.0641667 16.9166667 21.875 16.31 22.925 15.89c1.05-.42 2.31-.7058333 3.78-.8575C28.175 14.8808333 29.8083333 14.805 31.605 14.805v-1.68C31.605 11.9583333 31.3075 11.1358333 30.7125 10.6575 30.1175 10.1791667 29.2133333 9.94 28 9.94 26.9966667 9.94 26.11 10.1616667 25.34 10.605c-.77.443333299999999-1.155 1.1433333-1.155 2.1v.35h-3.92C20.2416667 12.9616667 20.23 12.8508333 20.23 12.7225s0-.2508333.0-.3675C20.23 11.3283333 20.5508333 10.43 21.1925 9.66 21.8341667 8.89 22.7266667 8.295 23.87 7.875c1.1433333-.42 2.45-.63 3.92-.63H28.385c2.4266667.0 4.235.47833333 5.425 1.435C35 9.63666667 35.595 10.9783333 35.595 12.705V21.84C35.595 22.2833333 35.7 22.5983333 35.91 22.785 36.12 22.9716667 36.3533333 23.065 36.61 23.065 36.8433333 23.065 37.0941667 23.0183333 37.3625 22.925 37.6308333 22.8316667 37.8816667 22.7266667 38.115 22.61v2.485C37.8116667 25.3283333 37.4266667 25.5091667 36.96 25.6375 36.4933333 25.7658333 35.9333333 25.83 35.28 25.83 34.51 25.83 33.8741667 25.69 33.3725 25.41S32.4916667 24.7508333 32.235 24.2725C31.9783333 23.7941667 31.8266667 23.2516667 31.78 22.645 31.1033333 23.6483333 30.2283333 24.43 29.155 24.99 28.0816667 25.55 26.8216667 25.83 25.375 25.83zm1.75-2.765C27.8716667 23.065 28.5833333 22.8958333 29.26 22.5575 29.9366667 22.2191667 30.4966667 21.7116667 30.94 21.035 31.3833333 20.3583333 31.605 19.5066667 31.605 18.48V17.115C29.9716667 17.115 28.5716667 17.2025 27.405 17.3775 26.2383333 17.5525 25.3516667 17.8733333 24.745 18.34 24.1383333 18.8066667 23.835 19.5066667 23.835 20.44 23.835 21.3733333 24.115 22.0441667 24.675 22.4525 25.235 22.8608333 26.0516667 23.065 27.125 23.065z" id="Shape"/><path d="M41.79 25.48V7.595h3.045L45.36 10.22C45.4066667 10.15 45.5233333 9.96333333 45.71 9.66 45.8966667 9.35666667 46.1883333 9.01833333 46.585 8.645 46.9816667 8.27166667 47.4833333 7.945 48.09 7.665c.606666699999998-.28 1.3416667-.42 2.205-.42 1.2366667.0 2.2458333.245 3.0275.735.781666700000002.49 1.365 1.16083333 1.75 2.0125C55.4575 10.8441667 55.65 11.8183333 55.65 12.915 55.65 13.1716667 55.6383333 13.4341667 55.615 13.7025 55.5916667 13.9708333 55.5683333 14.1983333 55.545 14.385h-3.43V13.685C52.115 13.195 52.0216667 12.6933333 51.835 12.18 51.6483333 11.6666667 51.3333333 11.235 50.89 10.885s-1.0616667-.525-1.855-.525C48.4516667 10.36 47.9558333 10.4825 47.5475 10.7275 47.1391667 10.9725 46.8066667 11.2816667 46.55 11.655 46.2933333 12.0283333 46.1125 12.4308333 46.0075 12.8625 45.9025 13.2941667 45.85 13.6966667 45.85 14.07V25.48H41.79z" id="Path"/><path d="M64.68 25.83C63.7466667 25.83 62.9125 25.69 62.1775 25.41S60.8708333 24.6691667 60.4625 24.0275C60.0541667 23.3858333 59.85 22.54 59.85 21.49V10.71H57.89V7.595h2.065L61.39 1.89h2.52V7.595H68.075V10.71H63.91v9.975C63.91 21.7116667 64.12 22.365 64.54 22.645 64.96 22.925 65.415 23.065 65.905 23.065 66.1616667 23.065 66.5175 23.0066667 66.9725 22.89S67.795 22.6566667 68.075 22.54v2.625C67.795 25.305 67.4566667 25.4275 67.06 25.5325S66.255 25.7133333 65.835 25.76C65.415 25.8066667 65.03 25.83 64.68 25.83z" id="Path"/><path d="M87.57 25.83C85.9833333 25.83 84.56 25.4683333 83.3 24.745 82.04 24.0216667 81.0541667 22.9833333 80.3425 21.63 79.6308333 20.2766667 79.275 18.6783333 79.275 16.835V16.24c0-1.8666667.3558333-3.4708333 1.0675-4.8125C81.0541667 10.0858333 82.0341667 9.05333333 83.2825 8.33c1.2483333-.72333333 2.6658333-1.085 4.2525-1.085H88.095C89.705 7.245 91.1341667 7.60666667 92.3825 8.33 93.6308333 9.05333333 94.6108333 10.0858333 95.3225 11.4275 96.0341667 12.7691667 96.39 14.3733333 96.39 16.24V16.835c0 1.8433333-.3558333 3.4416667-1.0675 4.795C94.6108333 22.9833333 93.6308333 24.0216667 92.3825 24.745 91.1341667 25.4683333 89.7166667 25.83 88.13 25.83H87.57zM87.815 23.065C88.6316667 23.065 89.3608333 22.8725 90.0025 22.4875 90.6441667 22.1025 91.1575 21.525 91.5425 20.755 91.9275 19.985 92.12 19.0516667 92.12 17.955V15.12C92.12 14 91.9275 13.0608333 91.5425 12.3025 91.1575 11.5441667 90.6441667 10.9725 90.0025 10.5875S88.6316667 10.01 87.815 10.01C87.0216667 10.01 86.3041667 10.2025 85.6625 10.5875 85.0208333 10.9725 84.5075 11.5441667 84.1225 12.3025 83.7375 13.0608333 83.545 14 83.545 15.12v2.835C83.545 19.0516667 83.7375 19.985 84.1225 20.755 84.5075 21.525 85.0208333 22.1025 85.6625 22.4875 86.3041667 22.8725 87.0216667 23.065 87.815 23.065z" id="Shape"/><path d="M101.78 25.48V10.71H99.715V7.595h2.065V4.515C101.78 2.92833333 102.235 1.77916667 103.145 1.0675 104.055.355833333 105.21.0 106.61.0 106.96.0 107.345.0291666667 107.765.0875 108.185.145833333 108.599167.221666667 109.0075.315 109.415833.408333333 109.76.525 110.04.665v2.59C109.76 3.13833333 109.3925 3.03333333 108.9375 2.94S108.126667 2.8 107.87 2.8C107.566667 2.8 107.2575 2.84666667 106.9425 2.94S106.365 3.23166667 106.155 3.535C105.945 3.83833333 105.84 4.32833333 105.84 5.005v2.59h4.2V10.71h-4.2V25.48h-4.06z" id="Path"/><path d="M119.28 25.48 128.38 1.47H133.42L142.485 25.48H137.935l-1.995-5.215H125.51l-1.995 5.215H119.28zM126.63 17.08h8.155L130.795 6.195H130.655L126.63 17.08z" id="Shape"/><path d="M152.39 25.83C150.896667 25.83 149.555 25.4625 148.365 24.7275S146.241667 22.96 145.565 21.63C144.888333 20.3 144.55 18.76 144.55 17.01v-.945C144.55 14.735 144.76 13.5333333 145.18 12.46 145.6 11.3866667 146.1775 10.4591667 146.9125 9.6775 147.6475 8.89583333 148.505 8.295 149.485 7.875 150.465 7.455 151.515 7.245 152.635 7.245H153.16C154.676667 7.245 155.995 7.54833333 157.115 8.155 158.235 8.76166667 159.104167 9.61333333 159.7225 10.71 160.340833 11.8066667 160.65 13.1133333 160.65 14.63H157.045C157.045 13.6033333 156.875833 12.7458333 156.5375 12.0575S155.7325 10.8558333 155.1375 10.5175 153.848333 10.01 153.055 10.01C151.841667 10.01 150.8325 10.4183333 150.0275 11.235 149.2225 12.0516667 148.82 13.2883333 148.82 14.945v3.08C148.82 19.6816667 149.210833 20.9358333 149.9925 21.7875 150.774167 22.6391667 151.806667 23.065 153.09 23.065 153.93 23.065 154.659167 22.9075 155.2775 22.5925 155.895833 22.2775 156.374167 21.7816667 156.7125 21.105 157.050833 20.4283333 157.22 19.5416667 157.22 18.445H160.65C160.65 20.0083333 160.311667 21.3441667 159.635 22.4525 158.958333 23.5608333 158.036667 24.4008333 156.87 24.9725 155.703333 25.5441667 154.385 25.83 152.915 25.83H152.39z" id="Path"/><path d="M171.885 25.83C170.391667 25.83 169.05 25.4625 167.86 24.7275 166.67 23.9925 165.736667 22.96 165.06 21.63 164.383333 20.3 164.045 18.76 164.045 17.01v-.945C164.045 14.735 164.255 13.5333333 164.675 12.46 165.095 11.3866667 165.6725 10.4591667 166.4075 9.6775 167.1425 8.89583333 168 8.295 168.98 7.875 169.96 7.455 171.01 7.245 172.13 7.245H172.655C174.171667 7.245 175.49 7.54833333 176.61 8.155 177.73 8.76166667 178.599167 9.61333333 179.2175 10.71 179.835833 11.8066667 180.145 13.1133333 180.145 14.63H176.54C176.54 13.6033333 176.370833 12.7458333 176.0325 12.0575S175.2275 10.8558333 174.6325 10.5175 173.343333 10.01 172.55 10.01C171.336667 10.01 170.3275 10.4183333 169.5225 11.235 168.7175 12.0516667 168.315 13.2883333 168.315 14.945v3.08C168.315 19.6816667 168.705833 20.9358333 169.4875 21.7875 170.269167 22.6391667 171.301667 23.065 172.585 23.065 173.425 23.065 174.154167 22.9075 174.7725 22.5925 175.390833 22.2775 175.869167 21.7816667 176.2075 21.105 176.545833 20.4283333 176.715 19.5416667 176.715 18.445H180.145C180.145 20.0083333 179.806667 21.3441667 179.13 22.4525 178.453333 23.5608333 177.531667 24.4008333 176.365 24.9725 175.198333 25.5441667 173.88 25.83 172.41 25.83H171.885z" id="Path"/><path d="M191.73 25.83C190.096667 25.83 188.661667 25.4858333 187.425 24.7975 186.188333 24.1091667 185.225833 23.1 184.5375 21.77c-.688333-1.33-1.0325-2.94-1.0325-4.83v-.805C183.505 14.245 183.8725 12.635 184.6075 11.305 185.3425 9.975 186.345833 8.96583333 187.6175 8.2775 188.889167 7.58916667 190.341667 7.245 191.975 7.245H192.43C193.946667 7.245 195.276667 7.55416667 196.42 8.1725 197.563333 8.79083333 198.45 9.67166667 199.08 10.815 199.71 11.9583333 200.025 13.3 200.025 14.84v2.205H187.74C187.74 18.2816667 187.903333 19.355 188.23 20.265 188.556667 21.175 189.040833 21.8691667 189.6825 22.3475 190.324167 22.8258333 191.123333 23.065 192.08 23.065 192.873333 23.065 193.579167 22.9075 194.1975 22.5925 194.815833 22.2775 195.305833 21.805 195.6675 21.175 196.029167 20.545 196.21 19.7633333 196.21 18.83h3.815C200.025 20.23 199.675 21.455 198.975 22.505 198.275 23.555 197.33 24.3716667 196.14 24.955 194.95 25.5383333 193.596667 25.83 192.08 25.83H191.73zM187.775 14.805H196.035c0-1.6333333-.35583299999999-2.8408333-1.0675-3.6225C194.255833 10.4008333 193.281667 10.01 192.045 10.01 190.878333 10.01 189.8925 10.4125 189.0875 11.2175 188.2825 12.0225 187.845 13.2183333 187.775 14.805z" id="Shape"/><path d="M210.77 25.83C209.58 25.83 208.53 25.6841667 207.62 25.3925 206.71 25.1008333 205.94 24.71 205.31 24.22 204.68 23.73 204.201667 23.17 203.875 22.54 203.548333 21.91 203.385 21.2566667 203.385 20.58 203.385 20.44 203.385 20.3233333 203.385 20.23S203.396667 20.0083333 203.42 19.845h3.5C206.896667 19.915 206.885 19.9791667 206.885 20.0375 206.885 20.0958333 206.885 20.1483333 206.885 20.195 206.885 20.8483333 207.095 21.385 207.515 21.805 207.935 22.225 208.489167 22.54 209.1775 22.75S210.63 23.065 211.47 23.065C212.17 23.065 212.835 22.9716667 213.465 22.785S214.608333 22.3241667 215.005 21.9625C215.401667 21.6008333 215.6 21.1516667 215.6 20.615 215.6 20.0083333 215.39 19.5416667 214.97 19.215S213.995833 18.6316667 213.3075 18.445 211.860833 18.095 211.0325 17.955C210.204167 17.815 209.37 17.6458333 208.53 17.4475 207.69 17.2491667 206.925833 16.9691667 206.2375 16.6075 205.549167 16.2458333 204.995 15.75 204.575 15.12 204.155 14.49 203.945 13.6616667 203.945 12.635c0-.84.186667-1.5983333.560000000000002-2.275C204.878333 9.68333333 205.403333 9.1175 206.08 8.6625c.676666999999981-.455 1.47-.805 2.38-1.05S210.35 7.245 211.4 7.245H211.96C212.94 7.245 213.855833 7.37333333 214.7075 7.63 215.559167 7.88666667 216.3 8.23666667 216.93 8.68S218.05 9.63666667 218.4 10.22C218.75 10.8033333 218.925 11.4216667 218.925 12.075 218.925 12.1916667 218.919167 12.32 218.9075 12.46 218.895833 12.6 218.89 12.6933333 218.89 12.74h-3.535v-.35C215.355 12.1566667 215.296667 11.9058333 215.18 11.6375S214.853333 11.1125 214.55 10.8675C214.246667 10.6225 213.844167 10.4183333 213.3425 10.255 212.840833 10.0916667 212.205 10.01 211.435 10.01 210.735 10.01 210.14 10.08 209.65 10.22 209.16 10.36 208.763333 10.5408333 208.46 10.7625 208.156667 10.9841667 207.940833 11.2233333 207.8125 11.48S207.62 11.9816667 207.62 12.215C207.62 12.7516667 207.83 13.1716667 208.25 13.475S209.23 14.0175 209.93 14.1925C210.63 14.3675 211.4 14.5191667 212.24 14.6475 213.08 14.7758333 213.914167 14.9391667 214.7425 15.1375 215.570833 15.3358333 216.335 15.6216667 217.035 15.995 217.735 16.3683333 218.295 16.87 218.715 17.5 219.135 18.13 219.345 18.9583333 219.345 19.985 219.345 21.0583333 219.140833 21.9741667 218.7325 22.7325 218.324167 23.4908333 217.758333 24.0916667 217.035 24.535s-1.54583299999999.77-2.4675.98C213.645833 25.725 212.671667 25.83 211.645 25.83h-.875z" id="Path"/><path d="M229.845 25.83C228.655 25.83 227.605 25.6841667 226.695 25.3925 225.785 25.1008333 225.015 24.71 224.385 24.22 223.755 23.73 223.276667 23.17 222.95 22.54 222.623333 21.91 222.46 21.2566667 222.46 20.58 222.46 20.44 222.46 20.3233333 222.46 20.23S222.471667 20.0083333 222.495 19.845h3.5C225.971667 19.915 225.96 19.9791667 225.96 20.0375 225.96 20.0958333 225.96 20.1483333 225.96 20.195 225.96 20.8483333 226.17 21.385 226.59 21.805 227.01 22.225 227.564167 22.54 228.2525 22.75S229.705 23.065 230.545 23.065C231.245 23.065 231.91 22.9716667 232.54 22.785S233.683333 22.3241667 234.08 21.9625C234.476667 21.6008333 234.675 21.1516667 234.675 20.615 234.675 20.0083333 234.465 19.5416667 234.045 19.215 233.625 18.8883333 233.070833 18.6316667 232.3825 18.445S230.935833 18.095 230.1075 17.955C229.279167 17.815 228.445 17.6458333 227.605 17.4475 226.765 17.2491667 226.000833 16.9691667 225.3125 16.6075 224.624167 16.2458333 224.07 15.75 223.65 15.12 223.23 14.49 223.02 13.6616667 223.02 12.635c0-.84.186667-1.5983333.560000000000002-2.275C223.953333 9.68333333 224.478333 9.1175 225.155 8.6625s1.47-.805 2.38-1.05S229.425 7.245 230.475 7.245H231.035C232.015 7.245 232.930833 7.37333333 233.7825 7.63 234.634167 7.88666667 235.375 8.23666667 236.005 8.68s1.12.956666670000001 1.47 1.54C237.825 10.8033333 238 11.4216667 238 12.075 238 12.1916667 237.994167 12.32 237.9825 12.46 237.970833 12.6 237.965 12.6933333 237.965 12.74H234.43v-.35C234.43 12.1566667 234.371667 11.9058333 234.255 11.6375S233.928333 11.1125 233.625 10.8675C233.321667 10.6225 232.919167 10.4183333 232.4175 10.255 231.915833 10.0916667 231.28 10.01 230.51 10.01 229.81 10.01 229.215 10.08 228.725 10.22 228.235 10.36 227.838333 10.5408333 227.535 10.7625S227.015833 11.2233333 226.8875 11.48 226.695 11.9816667 226.695 12.215C226.695 12.7516667 226.905 13.1716667 227.325 13.475 227.745 13.7783333 228.305 14.0175 229.005 14.1925 229.705 14.3675 230.475 14.5191667 231.315 14.6475 232.155 14.7758333 232.989167 14.9391667 233.8175 15.1375 234.645833 15.3358333 235.41 15.6216667 236.11 15.995 236.81 16.3683333 237.37 16.87 237.79 17.5 238.21 18.13 238.42 18.9583333 238.42 19.985 238.42 21.0583333 238.215833 21.9741667 237.8075 22.7325 237.399167 23.4908333 236.833333 24.0916667 236.11 24.535 235.386667 24.9783333 234.564167 25.305 233.6425 25.515 232.720833 25.725 231.746667 25.83 230.72 25.83h-.875z" id="Path"/><path d="M242.865 25.48V7.595h4.06V25.48h-4.06zM242.76 3.57V.28H247.03V3.57H242.76z" id="Shape"/><path d="M261.275 25.83C258.638333 25.83 256.631667 24.7683333 255.255 22.645L253.855 25.48H252.35V.28H256.41V9.8C256.876667 9.12333333 257.559167 8.52833333 258.4575 8.015 259.355833 7.50166667 260.411667 7.245 261.625 7.245 262.908333 7.245 264.080833 7.5425 265.1425 8.1375 266.204167 8.7325 267.05 9.65416667 267.68 10.9025 268.31 12.1508333 268.625 13.755 268.625 15.715v.805C268.625 18.6666667 268.2925 20.4283333 267.6275 21.805S266.075833 24.1966667 264.9675 24.85C263.859167 25.5033333 262.628333 25.83 261.275 25.83zM260.47 23.065C261.216667 23.065 261.881667 22.8783333 262.465 22.505 263.048333 22.1316667 263.509167 21.5483333 263.8475 20.755 264.185833 19.9616667 264.355 18.9233333 264.355 17.64V15.155C264.355 14.0116667 264.191667 13.0666667 263.865 12.32S263.095 11.0133333 262.535 10.64C261.975 10.2666667 261.321667 10.08 260.575 10.08S259.14 10.2666667 258.51 10.64C257.88 11.0133333 257.3725 11.5791667 256.9875 12.3375S256.41 14.0466667 256.41 15.19v2.485C256.41 18.9583333 256.590833 19.9966667 256.9525 20.79S257.804167 22.1608333 258.4225 22.5225 259.723333 23.065 260.47 23.065z" id="Shape"/><path d="M273.28 25.48V7.595h4.06V25.48h-4.06zM273.175 3.57V.28H277.445V3.57H273.175z" id="Shape"/><polygon id="Path" points="282.765 25.48 282.765 0.28 286.825 0.28 286.825 25.48"/><path d="M292.39 25.48V7.595h4.06V25.48h-4.06zM292.285 3.57V.28H296.555V3.57H292.285z" id="Shape"/><path d="M307.475 25.83C306.541667 25.83 305.7075 25.69 304.9725 25.41 304.2375 25.13 303.665833 24.6691667 303.2575 24.0275 302.849167 23.3858333 302.645 22.54 302.645 21.49V10.71H300.685V7.595h2.065l1.435-5.705H306.705V7.595H310.87V10.71H306.705v9.975C306.705 21.7116667 306.915 22.365 307.335 22.645 307.755 22.925 308.21 23.065 308.7 23.065 308.956667 23.065 309.3125 23.0066667 309.7675 22.89 310.2225 22.7733333 310.59 22.6566667 310.87 22.54v2.625C310.59 25.305 310.251667 25.4275 309.855 25.5325 309.458333 25.6375 309.05 25.7133333 308.63 25.76 308.21 25.8066667 307.825 25.83 307.475 25.83z" id="Path"/><path d="M316.96 31.99C316.423333 31.99 315.9275 31.9491667 315.4725 31.8675 315.0175 31.7858333 314.591667 31.6633333 314.195 31.5V28.385C314.451667 28.5016667 314.79 28.6008333 315.21 28.6825 315.63 28.7641667 316.038333 28.805 316.435 28.805 317.041667 28.805 317.549167 28.6883333 317.9575 28.455 318.365833 28.2216667 318.7275 27.8366667 319.0425 27.3 319.3575 26.7633333 319.666667 26.0633333 319.97 25.2l-7-17.605h4.375L321.93 20.16H322.14L326.585 7.595H330.61L323.995 24.675C323.481667 26.0283333 322.915833 27.2591667 322.2975 28.3675 321.679167 29.4758333 320.944167 30.3566667 320.0925 31.01 319.240833 31.6633333 318.196667 31.99 316.96 31.99z" id="Path"/><path d="M341.775 25.48V1.47h9.065C352.216667 1.47 353.494167 1.67416667 354.6725 2.0825S356.895 3.12666667 357.805 3.99C358.715 4.85333333 359.420833 5.96166667 359.9225 7.315 360.424167 8.66833333 360.675 10.3016667 360.675 12.215v1.82c0 1.89-.250833 3.5466667-.752499999999998 4.97S358.715 21.6241667 357.805 22.5925C356.895 23.5608333 355.850833 24.2841667 354.6725 24.7625S352.216667 25.48 350.84 25.48h-9.065zM346.115 22.12H350.525C351.575 22.12 352.525833 21.8808333 353.3775 21.4025S354.9 20.1658333 355.39 19.1275C355.88 18.0891667 356.125 16.7183333 356.125 15.015v-3.5C356.125 9.835 355.88 8.51083333 355.39 7.5425S354.229167 5.88 353.3775 5.46 351.575 4.83 350.525 4.83H346.115V22.12z" id="Shape"/><path d="M372.68 25.83C371.046667 25.83 369.611667 25.4858333 368.375 24.7975S366.175833 23.1 365.4875 21.77C364.799167 20.44 364.455 18.83 364.455 16.94v-.805C364.455 14.245 364.8225 12.635 365.5575 11.305S367.295833 8.96583333 368.5675 8.2775C369.839167 7.58916667 371.291667 7.245 372.925 7.245H373.38C374.896667 7.245 376.226667 7.55416667 377.37 8.1725 378.513333 8.79083333 379.4 9.67166667 380.03 10.815 380.66 11.9583333 380.975 13.3 380.975 14.84v2.205H368.69C368.69 18.2816667 368.853333 19.355 369.18 20.265S369.990833 21.8691667 370.6325 22.3475 372.073333 23.065 373.03 23.065C373.823333 23.065 374.529167 22.9075 375.1475 22.5925 375.765833 22.2775 376.255833 21.805 376.6175 21.175S377.16 19.7633333 377.16 18.83h3.815C380.975 20.23 380.625 21.455 379.925 22.505S378.28 24.3716667 377.09 24.955C375.9 25.5383333 374.546667 25.83 373.03 25.83H372.68zM368.725 14.805H376.985c0-1.6333333-.355833000000018-2.8408333-1.0675-3.6225C375.205833 10.4008333 374.231667 10.01 372.995 10.01 371.828333 10.01 370.8425 10.4125 370.0375 11.2175 369.2325 12.0225 368.795 13.2183333 368.725 14.805z" id="Shape"/><path d="M391.72 25.83C390.53 25.83 389.48 25.6841667 388.57 25.3925 387.66 25.1008333 386.89 24.71 386.26 24.22 385.63 23.73 385.151667 23.17 384.825 22.54 384.498333 21.91 384.335 21.2566667 384.335 20.58 384.335 20.44 384.335 20.3233333 384.335 20.23S384.346667 20.0083333 384.37 19.845h3.5C387.846667 19.915 387.835 19.9791667 387.835 20.0375 387.835 20.0958333 387.835 20.1483333 387.835 20.195 387.835 20.8483333 388.045 21.385 388.465 21.805 388.885 22.225 389.439167 22.54 390.1275 22.75S391.58 23.065 392.42 23.065C393.12 23.065 393.785 22.9716667 394.415 22.785S395.558333 22.3241667 395.955 21.9625C396.351667 21.6008333 396.55 21.1516667 396.55 20.615 396.55 20.0083333 396.34 19.5416667 395.92 19.215 395.5 18.8883333 394.945833 18.6316667 394.2575 18.445S392.810833 18.095 391.9825 17.955C391.154167 17.815 390.32 17.6458333 389.48 17.4475 388.64 17.2491667 387.875833 16.9691667 387.1875 16.6075 386.499167 16.2458333 385.945 15.75 385.525 15.12 385.105 14.49 384.895 13.6616667 384.895 12.635c0-.84.186667-1.5983333.560000000000002-2.275C385.828333 9.68333333 386.353333 9.1175 387.03 8.6625 387.706667 8.2075 388.5 7.8575 389.41 7.6125 390.32 7.3675 391.3 7.245 392.35 7.245H392.91C393.89 7.245 394.805833 7.37333333 395.6575 7.63 396.509167 7.88666667 397.25 8.23666667 397.88 8.68S399 9.63666667 399.35 10.22C399.7 10.8033333 399.875 11.4216667 399.875 12.075 399.875 12.1916667 399.869167 12.32 399.8575 12.46 399.845833 12.6 399.84 12.6933333 399.84 12.74H396.305v-.35C396.305 12.1566667 396.246667 11.9058333 396.13 11.6375S395.803333 11.1125 395.5 10.8675C395.196667 10.6225 394.794167 10.4183333 394.2925 10.255 393.790833 10.0916667 393.155 10.01 392.385 10.01 391.685 10.01 391.09 10.08 390.6 10.22 390.11 10.36 389.713333 10.5408333 389.41 10.7625 389.106667 10.9841667 388.890833 11.2233333 388.7625 11.48S388.57 11.9816667 388.57 12.215C388.57 12.7516667 388.78 13.1716667 389.2 13.475S390.18 14.0175 390.88 14.1925C391.58 14.3675 392.35 14.5191667 393.19 14.6475 394.03 14.7758333 394.864167 14.9391667 395.6925 15.1375S397.285 15.6216667 397.985 15.995C398.685 16.3683333 399.245 16.87 399.665 17.5 400.085 18.13 400.295 18.9583333 400.295 19.985 400.295 21.0583333 400.090833 21.9741667 399.6825 22.7325 399.274167 23.4908333 398.708333 24.0916667 397.985 24.535 397.261667 24.9783333 396.439167 25.305 395.5175 25.515 394.595833 25.725 393.621667 25.83 392.595 25.83h-.875z" id="Path"/><polygon id="Path" points="404.495 25.48 404.495 0.28 408.555 0.28 408.555 16.87 416.22 7.595 420.98 7.595 413.945 15.82 421.33 25.48 416.43 25.48 411.145 18.585 408.555 21.245 408.555 25.48"/></g><g id="." transform="translate(951.652500, 92.465000)" fill="#000" fill-rule="nonzero"><polygon id="Path" points="0 26.535 0 0 27.695 0 27.695 26.535"/></g><g id="ai" transform="translate(995.635000, 14.600000)" fill="#000" fill-rule="nonzero"><path d="M23.345 105.85C19.3816667 105.85 15.6116667 105.149167 12.035 103.7475 8.45833333 102.345833 5.55833333 100.098333 3.335 97.005 1.11166667 93.9116667.0 89.755.0 84.535c0-5.1233333 1.11166667-9.3766667 3.335-12.76C5.55833333 68.3916667 8.7725 65.7333333 12.9775 63.8 17.1825 61.8666667 22.2816667 60.5133333 28.275 59.74 34.2683333 58.9666667 41.035 58.58 48.575 58.58V53.505C48.575 50.7016667 47.6566667 48.6958333 45.82 47.4875s-4.06-1.8125-6.67-1.8125C36.3466667 45.675 34.0991667 46.3033333 32.4075 47.56c-1.6916667 1.2566667-2.5375 2.9-2.5375 4.93V53.07H2.32C2.22333333 52.8766667 2.175 52.5866667 2.175 52.2c0-.386666700000006.0-.773333300000004.0-1.16.0-4.1566667 1.40166667-7.9025 4.205-11.2375s6.815-5.9933333 12.035-7.975c5.22-1.9816667 11.4066667-2.9725 18.56-2.9725H41.76c11.6966667.0 20.3966667 2.2475 26.1 6.7425C73.5633333 40.0925 76.415 45.675 76.415 52.345V82.94C76.415 84.8733333 76.8983333 86.2508333 77.865 87.0725 78.8316667 87.8941667 79.8466667 88.305 80.91 88.305 81.78 88.305 82.65 88.1841667 83.52 87.9425 84.39 87.7008333 85.2116667 87.3866667 85.985 87v15.515c-1.2566667.966667000000001-3.0691667 1.764167-5.4375 2.3925S75.11 105.85 71.34 105.85C67.0866667 105.85 63.4616667 105.3425 60.465 104.3275 57.4683333 103.3125 55.1241667 101.935 53.4325 100.195 51.7408333 98.455 50.605 96.425 50.025 94.105 47.5116667 97.005 44.1041667 99.6875 39.8025 102.1525 35.5008333 104.6175 30.015 105.85 23.345 105.85zm15.37-17.545C40.455 88.305 42.0741667 87.8941667 43.5725 87.0725 45.0708333 86.2508333 46.2791667 85.0666667 47.1975 83.52S48.575 80.185 48.575 78.155v-6.38C44.1283333 71.775 40.5516667 72.1858333 37.845 73.0075 35.1383333 73.8291667 33.1566667 74.9408333 31.9 76.3425 30.6433333 77.7441667 30.015 79.4116667 30.015 81.345c0 2.80333330000001.8941667 4.6641667 2.6825 5.5825C34.4858333 87.8458333 36.4916667 88.305 38.715 88.305z" id="Shape"/><path d="M94.25 104.4V30.45h28.71V104.4H94.25zm0-83.665V0h28.71V20.735H94.25z" id="Shape"/></g><rect id="Rectangle" fill="#79ddf2" x="0" y="0" width="180.390244" height="172"/></g><g id="1464214_cursor_edit_search_text-cursor_text-select_icon" transform="translate(25.000000, 18.000000)" fill="#000" fill-rule="nonzero"><path d="M81.8742207.0H131V16.5H81.8742207V0zM106.43711 132C101.909351 132 98.2494805 128.31225 98.2494805 123.75V8.25c0-4.554 3.6598705-8.25 8.1876295-8.25 4.52776.0 8.18763 3.696 8.18763 8.25v115.5c0 4.56225000000001-3.65987 8.25-8.18763 8.25zM81.8742207 115.5H131V132H81.8742207V115.5zm-8.1794422-8.25c-3.1440499.0-6.1325348-1.82325-7.4916814-4.90049999999999L40.9360713 45.0615l-25.2670258 57.288C13.8350164 106.5075 8.99612715 108.38025 4.86137406 106.5405.734808601 104.68425-1.13197101 99.81675.710245712 95.6505L33.4607652 21.4005C34.770786 18.42225 37.7019575 16.5 40.9360713 16.5c3.2341138.0 6.1652853 1.92225 7.4834937 4.9005l32.7505195 74.25C83.0041136 99.81675 81.1455217 104.6925 77.0107686 106.5405 75.9300014 107.02725 74.8082961 107.25 73.6947785 107.25zM65.498961 90.75H16.3731817C11.85361 90.75 8.18555179 87.06225 8.18555179 82.5S11.85361 74.25 16.3731817 74.25H65.498961C70.0185327 74.25 73.6865908 77.93775 73.6865908 82.5S70.0185327 90.75 65.498961 90.75z" id="Shape"/></g></g></g></g></svg>