<svg width="25" height="24" viewBox="0 0 25 24" fill="none" xmlns="http://www.w3.org/2000/svg">
<path fill-rule="evenodd" clip-rule="evenodd" d="M10.7092 5.86738C10.6977 5.86713 10.6862 5.86712 10.6746 5.86738H8.02464C7.45884 5.86738 6.91622 6.09214 6.51614 6.49222C6.11606 6.89229 5.8913 7.43492 5.8913 8.00071V13.3161C5.89105 13.3276 5.89105 13.3392 5.8913 13.3508V16.0007C5.8913 16.5665 6.11606 17.1091 6.51614 17.5092C6.91622 17.9093 7.45884 18.134 8.02464 18.134H13.34C13.3515 18.1343 13.3631 18.1343 13.3747 18.134H16.0246C16.5904 18.134 17.1331 17.9093 17.5331 17.5092C17.9332 17.1091 18.158 16.5665 18.158 16.0007V8.00071C18.158 7.43491 17.9332 6.89229 17.5331 6.49222C17.1331 6.09214 16.5904 5.86738 16.0246 5.86738H10.7092ZM13.9826 16.534H16.0246C16.1661 16.534 16.3017 16.4779 16.4018 16.3778C16.5018 16.2778 16.558 16.1422 16.558 16.0007V8.00071C16.558 7.85926 16.5018 7.72361 16.4018 7.62359C16.3017 7.52357 16.1661 7.46738 16.0246 7.46738H11.7159L13.9826 16.534ZM12.3333 16.534L11.4426 12.9709L7.4913 13.9587V16.0007C7.4913 16.1422 7.54749 16.2778 7.64751 16.3778C7.74753 16.4779 7.88319 16.534 8.02464 16.534H12.3333ZM7.4913 12.3094V8.00071C7.4913 7.85926 7.54749 7.72361 7.64751 7.62359C7.74753 7.52357 7.88319 7.46738 8.02464 7.46738H10.0667L11.0545 11.4186L7.4913 12.3094Z" fill="url(#paint0_linear_153_633)"/>
<circle opacity="0.7" cx="12.0244" cy="12" r="11.5" stroke="url(#paint1_linear_153_633)"/>
<defs>
<linearGradient id="paint0_linear_153_633" x1="5.89111" y1="5.86719" x2="19.4252" y2="7.47645" gradientUnits="userSpaceOnUse">
<stop stop-color="#0497DC"/>
<stop offset="1" stop-color="#465CE0"/>
</linearGradient>
<linearGradient id="paint1_linear_153_633" x1="0.0244141" y1="0" x2="26.5038" y2="3.14856" gradientUnits="userSpaceOnUse">
<stop stop-color="#0497DC"/>
<stop offset="1" stop-color="#465CE0"/>
</linearGradient>
</defs>
</svg>
